<?xml version="1.0" standalone="no"?>
<!DOCTYPE svg PUBLIC "-//W3C//DTD SVG 20010904//EN"
 "http://www.w3.org/TR/2001/REC-SVG-20010904/DTD/svg10.dtd">
<svg version="1.0" xmlns="http://www.w3.org/2000/svg"
 width="128.000000pt" height="128.000000pt" viewBox="0 0 128.000000 128.000000"
 preserveAspectRatio="xMidYMid meet">

<g transform="translate(0.000000,128.000000) scale(0.100000,-0.100000)"
fill="#000000" stroke="none">
<path d="M312 1268 c-9 -9 -12 -84 -12 -276 l0 -263 -22 8 c-13 4 -57 8 -99 8
-67 0 -80 -3 -112 -28 -88 -67 -88 -157 0 -224 30 -23 48 -28 107 -31 59 -3
79 1 116 20 82 42 84 52 90 373 l5 280 37 -50 c62 -82 98 -162 98 -216 0 -39
-6 -56 -35 -93 -19 -26 -35 -52 -35 -59 0 -18 21 -37 41 -37 36 0 108 126 109
188 0 80 -68 208 -185 345 -57 66 -80 78 -103 55z m-51 -611 c96 -64 -26 -163
-137 -111 -58 27 -58 94 -1 119 48 21 99 18 138 -8z"/>
<path d="M955 931 l-270 -117 -3 -271 -2 -271 -43 15 c-50 18 -118 13 -170
-12 -110 -52 -110 -198 0 -250 115 -55 259 -4 283 100 5 22 10 141 10 265 l0
225 207 89 c114 49 213 91 220 93 10 4 13 -28 13 -146 l0 -151 -26 10 c-42 16
-135 11 -181 -10 -113 -51 -111 -201 4 -252 67 -30 167 -23 217 15 66 51 66
49 66 425 0 348 -2 363 -39 361 -9 0 -137 -54 -286 -118z m245 -14 l0 -32
-207 -89 c-114 -49 -213 -91 -220 -93 -9 -4 -13 5 -13 29 l0 33 213 92 c116
50 215 92 220 92 4 1 7 -14 7 -32z m-46 -481 c60 -25 61 -92 2 -120 -48 -22
-97 -20 -137 7 -94 64 22 160 135 113z m-514 -231 c51 -27 51 -83 0 -110 -74
-38 -180 -6 -180 55 0 61 106 93 180 55z"/>
</g>
</svg>
